<svg id="visual" viewBox="0 0 3840 2160" width="3840" height="2160" xmlns="http://www.w3.org/2000/svg" xmlns:xlink="http://www.w3.org/1999/xlink" version="1.1"><rect x="0" y="0" width="3840" height="2160" fill="#0e070c"></rect><defs><linearGradient id="grad1_0" x1="43.8%" y1="100%" x2="100%" y2="0%"><stop offset="14.444444444444446%" stop-color="#4e4265" stop-opacity="1"></stop><stop offset="85.55555555555554%" stop-color="#4e4265" stop-opacity="1"></stop></linearGradient></defs><defs><linearGradient id="grad1_1" x1="43.8%" y1="100%" x2="100%" y2="0%"><stop offset="14.444444444444446%" stop-color="#4e4265" stop-opacity="1"></stop><stop offset="85.55555555555554%" stop-color="#3c2e44" stop-opacity="1"></stop></linearGradient></defs><defs><linearGradient id="grad1_2" x1="43.8%" y1="100%" x2="100%" y2="0%"><stop offset="14.444444444444446%" stop-color="#271c27" stop-opacity="1"></stop><stop offset="85.55555555555554%" stop-color="#3c2e44" stop-opacity="1"></stop></linearGradient></defs><defs><linearGradient id="grad1_3" x1="43.8%" y1="100%" x2="100%" y2="0%"><stop offset="14.444444444444446%" stop-color="#271c27" stop-opacity="1"></stop><stop offset="85.55555555555554%" stop-color="#0e070c" stop-opacity="1"></stop></linearGradient></defs><defs><linearGradient id="grad2_0" x1="0%" y1="100%" x2="56.3%" y2="0%"><stop offset="14.444444444444446%" stop-color="#4e4265" stop-opacity="1"></stop><stop offset="85.55555555555554%" stop-color="#4e4265" stop-opacity="1"></stop></linearGradient></defs><defs><linearGradient id="grad2_1" x1="0%" y1="100%" x2="56.3%" y2="0%"><stop offset="14.444444444444446%" stop-color="#3c2e44" stop-opacity="1"></stop><stop offset="85.55555555555554%" stop-color="#4e4265" stop-opacity="1"></stop></linearGradient></defs><defs><linearGradient id="grad2_2" x1="0%" y1="100%" x2="56.3%" y2="0%"><stop offset="14.444444444444446%" stop-color="#3c2e44" stop-opacity="1"></stop><stop offset="85.55555555555554%" stop-color="#271c27" stop-opacity="1"></stop></linearGradient></defs><defs><linearGradient id="grad2_3" x1="0%" y1="100%" x2="56.3%" y2="0%"><stop offset="14.444444444444446%" stop-color="#0e070c" stop-opacity="1"></stop><stop offset="85.55555555555554%" stop-color="#271c27" stop-opacity="1"></stop></linearGradient></defs><g transform="translate(3840, 2160)"><path d="M-1944 0C-1927.9 -261.5 -1911.7 -522.9 -1796 -743.9C-1680.3 -965 -1465.1 -1145.5 -1251.6 -1251.6C-1038.1 -1357.6 -826.3 -1389.1 -618 -1492.1C-409.7 -1595 -204.9 -1769.5 0 -1944L0 0Z" fill="#1b131a"></path><path d="M-1458 0C-1445.9 -196.1 -1433.8 -392.2 -1347 -558C-1260.2 -723.7 -1098.8 -859.2 -938.7 -938.7C-778.6 -1018.2 -619.8 -1041.8 -463.5 -1119C-307.3 -1196.3 -153.6 -1327.1 0 -1458L0 0Z" fill="#322435"></path><path d="M-972 0C-963.9 -130.7 -955.9 -261.5 -898 -372C-840.2 -482.5 -732.5 -572.8 -625.8 -625.8C-519 -678.8 -413.2 -694.5 -309 -746C-204.9 -797.5 -102.4 -884.8 0 -972L0 0Z" fill="#463754"></path><path d="M-486 0C-482 -65.4 -477.9 -130.7 -449 -186C-420.1 -241.2 -366.3 -286.4 -312.9 -312.9C-259.5 -339.4 -206.6 -347.3 -154.5 -373C-102.4 -398.8 -51.2 -442.4 0 -486L0 0Z" fill="#4e4265"></path></g><g transform="translate(0, 0)"><path d="M1944 0C1935.6 272.6 1927.1 545.2 1796 743.9C1664.9 942.6 1411.2 1067.4 1214.8 1214.8C1018.4 1362.2 879.4 1532.1 686.5 1657.4C493.6 1782.7 246.8 1863.4 0 1944L0 0Z" fill="#1b131a"></path><path d="M1458 0C1451.7 204.5 1445.3 408.9 1347 558C1248.7 707 1058.4 800.6 911.1 911.1C763.8 1021.6 659.6 1149.1 514.9 1243.1C370.2 1337.1 185.1 1397.5 0 1458L0 0Z" fill="#322435"></path><path d="M972 0C967.8 136.3 963.6 272.6 898 372C832.5 471.3 705.6 533.7 607.4 607.4C509.2 681.1 439.7 766.1 343.3 828.7C246.8 891.4 123.4 931.7 0 972L0 0Z" fill="#463754"></path><path d="M486 0C483.9 68.2 481.8 136.3 449 186C416.2 235.7 352.8 266.9 303.7 303.7C254.6 340.5 219.9 383 171.6 414.4C123.4 445.7 61.7 465.8 0 486L0 0Z" fill="#4e4265"></path></g></svg>