<svg id="visual" viewBox="0 0 1920 1080" width="1920" height="1080" xmlns="http://www.w3.org/2000/svg" xmlns:xlink="http://www.w3.org/1999/xlink" version="1.1"><rect x="0" y="0" width="1920" height="1080" fill="#0E070C"></rect><defs><linearGradient id="grad1_0" x1="43.8%" y1="100%" x2="100%" y2="0%"><stop offset="14.444444444444446%" stop-color="#8977bb" stop-opacity="1"></stop><stop offset="85.55555555555554%" stop-color="#8977bb" stop-opacity="1"></stop></linearGradient></defs><defs><linearGradient id="grad1_1" x1="43.8%" y1="100%" x2="100%" y2="0%"><stop offset="14.444444444444446%" stop-color="#8977bb" stop-opacity="1"></stop><stop offset="85.55555555555554%" stop-color="#513b58" stop-opacity="1"></stop></linearGradient></defs><defs><linearGradient id="grad1_2" x1="43.8%" y1="100%" x2="100%" y2="0%"><stop offset="14.444444444444446%" stop-color="#0e070c" stop-opacity="1"></stop><stop offset="85.55555555555554%" stop-color="#513b58" stop-opacity="1"></stop></linearGradient></defs><defs><linearGradient id="grad2_0" x1="0%" y1="100%" x2="56.3%" y2="0%"><stop offset="14.444444444444446%" stop-color="#8977bb" stop-opacity="1"></stop><stop offset="85.55555555555554%" stop-color="#8977bb" stop-opacity="1"></stop></linearGradient></defs><defs><linearGradient id="grad2_1" x1="0%" y1="100%" x2="56.3%" y2="0%"><stop offset="14.444444444444446%" stop-color="#513b58" stop-opacity="1"></stop><stop offset="85.55555555555554%" stop-color="#8977bb" stop-opacity="1"></stop></linearGradient></defs><defs><linearGradient id="grad2_2" x1="0%" y1="100%" x2="56.3%" y2="0%"><stop offset="14.444444444444446%" stop-color="#513b58" stop-opacity="1"></stop><stop offset="85.55555555555554%" stop-color="#0e070c" stop-opacity="1"></stop></linearGradient></defs><g transform="translate(1920, 1080)"><path d="M-702 0C-686 -126.9 -670.1 -253.9 -607.9 -351C-545.8 -448.1 -437.5 -515.4 -328.5 -569C-219.5 -622.5 -109.7 -662.3 0 -702L0 0Z" fill="#312230"></path><path d="M-468 0C-457.4 -84.6 -446.7 -169.2 -405.3 -234C-363.9 -298.8 -291.7 -343.6 -219 -379.3C-146.3 -415 -73.2 -441.5 0 -468L0 0Z" fill="#705787"></path><path d="M-234 0C-228.7 -42.3 -223.4 -84.6 -202.6 -117C-181.9 -149.4 -145.8 -171.8 -109.5 -189.7C-73.2 -207.5 -36.6 -220.8 0 -234L0 0Z" fill="#8977bb"></path></g><g transform="translate(0, 0)"><path d="M702 0C685.4 125.9 668.9 251.8 607.9 351C547 450.2 441.7 522.7 333 576.8C224.3 630.8 112.1 666.4 0 702L0 0Z" fill="#312230"></path><path d="M468 0C457 83.9 445.9 167.9 405.3 234C364.7 300.1 294.5 348.5 222 384.5C149.5 420.5 74.8 444.3 0 468L0 0Z" fill="#705787"></path><path d="M234 0C228.5 42 223 83.9 202.6 117C182.3 150.1 147.2 174.2 111 192.3C74.8 210.3 37.4 222.1 0 234L0 0Z" fill="#8977bb"></path></g></svg>